<svg width="29" height="32" viewBox="0 0 29 32" fill="none" xmlns="http://www.w3.org/2000/svg">
<g clip-path="url(#clip0_862_2579)">
<path d="M28.9855 8.35508C28.9811 8.20826 28.9392 8.06512 28.864 7.93965C28.7887 7.81418 28.6827 7.71067 28.5563 7.63925L14.8966 0.101854C14.7746 0.0349916 14.6381 -1.52588e-05 14.4994 -1.52588e-05C14.3608 -1.52588e-05 14.2243 0.0349916 14.1023 0.101854L0.442582 7.63925C0.31354 7.70886 0.204719 7.81157 0.126965 7.93717C0.0492112 8.06277 0.00523852 8.20686 -0.000570508 8.35508C-0.112055 14.2147 1.06411 19.1859 3.49448 23.1328C5.8496 26.9637 9.4422 29.9233 14.1692 31.9321C14.2707 31.9769 14.3803 32 14.4911 32C14.6018 32 14.7114 31.9769 14.813 31.9321C19.5511 29.9233 23.1325 26.9637 25.4877 23.1328C27.9264 19.1859 29.1026 14.2147 28.9855 8.35508ZM21.8142 16.3027C21.812 18.1315 21.0954 19.8847 19.8216 21.1779C18.5477 22.471 16.8207 23.1985 15.0192 23.2007H13.9796C12.1782 23.1985 10.4511 22.471 9.17728 21.1779C7.90345 19.8847 7.18684 18.1315 7.18463 16.3027V8.79929L10.1641 10.9072C10.2742 10.986 10.4056 11.0285 10.5403 11.0288H10.6741C10.7699 11.0306 10.865 11.0113 10.9528 10.9722C12.0789 10.4867 13.2899 10.2365 14.5134 10.2365C15.7368 10.2365 16.9478 10.4867 18.0739 10.9722C18.1617 11.0113 18.2568 11.0306 18.3526 11.0288H18.4864C18.6212 11.0285 18.7526 10.986 18.8627 10.9072L21.8142 8.79929V16.3027Z" fill="url(#paint0_linear_862_2579)"/>
<path d="M21.8151 8.79929L18.8357 10.9072C18.7256 10.986 18.5942 11.0285 18.4595 11.0288H18.3257C18.2298 11.0306 18.1347 11.0113 18.047 10.9722C16.9208 10.4867 15.7099 10.2365 14.4864 10.2365C13.2629 10.2365 12.052 10.4867 10.9259 10.9722C10.8381 11.0113 10.743 11.0306 10.6472 11.0288H10.5134C10.3786 11.0285 10.2472 10.986 10.1371 10.9072L7.18555 8.79929V16.3027C7.18776 18.1315 7.90437 19.8847 9.1782 21.1779C10.452 22.471 12.1791 23.1985 13.9805 23.2007H15.0201C16.8216 23.1985 18.5487 22.471 19.8225 21.1779C21.0963 19.8847 21.8129 18.1315 21.8151 16.3027V8.79929Z" fill="white"/>
<path d="M14.4209 10.2394C13.2237 10.2424 12.0395 10.4916 10.9398 10.9722C10.852 11.0113 10.7569 11.0306 10.6611 11.0288H10.5273C10.3925 11.0285 10.2611 10.986 10.151 10.9072L7.18555 8.79929V16.3027C7.18555 16.464 7.18555 16.6253 7.21063 16.7866C7.86294 17.1035 8.5721 17.2819 9.2947 17.311C10.0173 17.3401 10.7382 17.2191 11.4131 16.9556C12.0881 16.6921 12.703 16.2915 13.2202 15.7783C13.7373 15.2652 14.1459 14.6503 14.4209 13.9713V10.2394Z" fill="#A8754A"/>
<path d="M18.4582 11.0345H18.3244C18.2286 11.0363 18.1335 11.017 18.0457 10.9779C16.9233 10.4874 15.714 10.2351 14.4921 10.2366H14.4141V13.8638C14.6763 14.5737 15.0831 15.2195 15.6078 15.7591C16.1326 16.2986 16.7635 16.7198 17.4594 16.995C18.1553 17.2703 18.9006 17.3935 19.6466 17.3566C20.3926 17.3197 21.1225 17.1235 21.7888 16.7809C21.7888 16.6225 21.8139 16.464 21.8139 16.3027V8.79929L18.8344 10.9072C18.725 10.9881 18.5935 11.0325 18.4582 11.0345Z" fill="#231F20"/>
</g>
<defs>
<linearGradient id="paint0_linear_862_2579" x1="-0.000570508" y1="16" x2="28.9994" y2="16" gradientUnits="userSpaceOnUse">
<stop stop-color="#FFA500"/>
<stop offset="1" stop-color="#E76D2C"/>
</linearGradient>
<clipPath id="clip0_862_2579">
<rect width="29" height="32" fill="white"/>
</clipPath>
</defs>
</svg>
