<?xml version="1.0" standalone="no"?>
<!DOCTYPE svg PUBLIC "-//W3C//DTD SVG 20010904//EN"
 "http://www.w3.org/TR/2001/REC-SVG-20010904/DTD/svg10.dtd">
<svg version="1.0" xmlns="http://www.w3.org/2000/svg"
 width="1000.000000pt" height="1000.000000pt" viewBox="0 0 1000.000000 1000.000000"
 preserveAspectRatio="xMidYMid meet">
<metadata>
Created by potrace 1.14, written by Peter Selinger 2001-2017
</metadata>
<g transform="translate(0.000000,1000.000000) scale(0.100000,-0.100000)"
fill="#000000" stroke="none">
<path d="M4447 9994 c-2 -2 -73 -6 -158 -8 -85 -3 -154 -5 -154 -6 0 -1 -45
-3 -100 -5 -143 -5 -479 -28 -595 -40 -25 -3 -74 -7 -110 -10 -36 -3 -87 -8
-115 -10 -27 -3 -59 -7 -71 -9 -12 -2 -57 -7 -100 -11 -43 -4 -88 -9 -99 -11
-23 -5 -78 -12 -145 -18 -25 -3 -45 -6 -45 -6 0 -1 -16 -4 -35 -6 -72 -10 -85
-12 -85 -14 0 -1 -13 -3 -30 -5 -50 -5 -114 -15 -250 -40 -180 -33 -175 -32
-228 -44 -26 -6 -64 -14 -83 -17 -20 -3 -44 -8 -53 -10 -16 -4 -169 -41 -206
-49 -42 -10 -174 -49 -260 -76 -49 -16 -97 -31 -105 -33 -18 -5 -162 -59 -205
-77 -16 -7 -32 -13 -35 -13 -20 -5 -240 -121 -240 -128 0 -4 -6 -8 -13 -8 -7
0 -23 -9 -35 -20 -12 -11 -26 -20 -31 -20 -18 0 -138 -126 -167 -175 -35 -60
-38 -74 -39 -150 0 -109 53 -185 256 -365 34 -30 75 -68 92 -83 17 -15 55 -50
86 -77 31 -27 79 -70 106 -95 28 -25 74 -67 103 -93 30 -26 71 -63 91 -82 21
-19 71 -64 111 -100 40 -36 85 -76 101 -90 77 -70 174 -158 199 -180 15 -14
60 -54 100 -90 41 -36 83 -74 95 -85 11 -11 56 -51 100 -90 44 -38 86 -77 95
-85 9 -8 49 -44 89 -80 40 -36 87 -78 105 -95 18 -16 52 -47 77 -69 24 -21 64
-57 89 -80 40 -36 216 -195 246 -221 20 -17 167 -149 184 -165 9 -8 54 -49
100 -90 46 -41 91 -82 100 -90 32 -30 185 -169 206 -187 18 -15 99 -88 189
-168 12 -11 61 -55 108 -98 47 -43 96 -88 109 -99 20 -17 117 -104 194 -173
12 -11 57 -51 100 -90 42 -38 89 -81 103 -94 100 -93 358 -245 402 -237 3 1
13 -5 22 -13 10 -7 17 -10 17 -7 0 4 8 2 18 -3 19 -10 54 -19 105 -27 16 -2
33 -6 38 -9 12 -8 120 -17 209 -18 113 -1 204 10 315 38 95 24 266 91 273 107
2 5 8 8 14 8 15 0 168 102 168 112 0 4 4 8 10 8 5 0 20 10 32 23 13 12 51 46
83 75 99 89 206 185 235 212 38 36 181 165 206 187 31 26 199 179 320 290 23
21 77 70 120 108 102 92 180 163 216 198 16 15 30 27 33 27 2 0 21 17 43 38
22 20 55 51 73 68 67 60 166 150 259 234 51 47 105 96 119 109 14 12 59 53
100 90 41 36 89 80 106 96 18 17 61 55 95 85 35 30 80 71 100 90 20 19 69 64
109 99 40 36 85 76 100 90 16 14 61 55 100 91 40 36 89 81 110 100 21 19 74
67 116 105 43 39 93 84 110 100 18 17 59 53 90 80 32 28 80 71 106 98 26 26
49 47 52 47 2 0 25 19 50 43 71 66 188 172 230 208 94 81 219 214 223 238 0 3
8 22 17 41 24 54 17 153 -17 219 -29 55 -152 185 -187 196 -10 4 -19 11 -19
16 0 5 -6 9 -14 9 -8 0 -16 3 -18 8 -9 21 -246 136 -398 191 -63 24 -122 45
-130 48 -8 3 -19 7 -25 8 -19 5 -160 47 -175 52 -19 8 -30 11 -58 17 -13 3
-32 8 -42 11 -10 3 -27 8 -37 10 -10 2 -45 11 -79 19 -34 8 -72 17 -85 20 -13
3 -67 14 -119 26 -52 11 -106 23 -120 25 -14 3 -36 7 -50 10 -14 3 -41 8 -60
11 -19 4 -44 9 -55 11 -11 2 -33 6 -50 8 -16 2 -59 9 -95 15 -67 12 -71 13
-155 25 -27 3 -61 8 -75 10 -44 7 -104 15 -150 20 -25 3 -58 8 -75 10 -16 3
-48 7 -70 9 -22 3 -67 7 -100 11 -33 3 -76 8 -95 10 -19 2 -35 4 -35 5 0 0
-27 3 -60 5 -64 4 -152 11 -250 20 -101 10 -272 21 -465 30 -41 2 -75 4 -75 5
0 9 -1439 23 -1448 14z"/>
<path d="M650 6871 c0 -385 3 -701 8 -701 4 0 32 -24 63 -53 46 -43 131 -120
219 -197 15 -14 143 -129 210 -190 15 -14 61 -54 101 -90 40 -36 84 -76 98
-89 34 -30 163 -147 188 -169 11 -9 55 -49 99 -89 43 -39 88 -80 100 -90 39
-34 176 -158 213 -192 35 -32 152 -137 194 -174 34 -29 178 -160 218 -197 21
-19 62 -57 93 -83 30 -26 65 -58 78 -70 81 -73 289 -261 318 -287 48 -42 166
-148 190 -170 50 -46 193 -174 233 -210 22 -19 58 -52 79 -72 22 -21 41 -38
43 -38 2 0 23 -19 48 -43 24 -23 68 -62 96 -87 29 -25 69 -61 90 -80 20 -19
70 -64 111 -100 40 -36 85 -76 100 -90 15 -14 60 -54 100 -90 40 -36 85 -76
100 -90 15 -14 45 -41 66 -60 42 -38 165 -141 210 -177 66 -52 314 -162 401
-179 6 -1 35 -7 65 -14 43 -9 191 -23 233 -22 100 4 183 13 240 27 39 9 79 18
89 20 41 9 118 38 176 66 33 16 65 29 70 29 6 0 10 5 10 10 0 6 5 10 12 10 14
0 148 90 191 129 17 16 42 38 53 48 27 23 175 157 219 198 48 45 175 159 215
194 19 17 38 31 43 31 4 0 7 7 7 15 0 8 4 15 8 15 5 0 22 12 39 28 17 15 61
55 99 89 38 34 85 77 105 95 20 18 69 62 108 98 40 36 87 79 105 95 18 17 67
61 109 99 79 70 90 80 188 170 51 47 179 163 233 211 13 11 62 56 111 100 48
44 96 87 105 95 9 8 56 50 103 94 48 43 95 86 105 95 19 16 157 141 212 191
15 14 64 59 110 100 46 41 95 86 110 100 14 14 62 56 104 95 43 38 91 81 106
95 26 24 156 142 211 192 56 49 183 164 209 188 15 14 57 52 94 85 37 33 80
71 95 85 97 89 207 189 231 210 15 14 46 42 69 63 l41 38 0 689 c0 380 -3 690
-7 690 -5 0 -41 -32 -82 -70 -40 -39 -75 -70 -77 -70 -2 0 -21 -17 -42 -37
-40 -38 -161 -148 -241 -219 -24 -22 -58 -52 -76 -69 -17 -16 -68 -62 -111
-101 -44 -40 -94 -85 -110 -100 -17 -16 -61 -56 -99 -89 -37 -33 -79 -71 -94
-85 -15 -14 -69 -63 -121 -110 -51 -47 -105 -96 -119 -109 -14 -12 -62 -55
-106 -95 -44 -39 -94 -84 -112 -101 -17 -16 -62 -57 -99 -90 -37 -33 -82 -73
-99 -90 -18 -16 -65 -59 -105 -95 -41 -36 -83 -74 -95 -85 -11 -11 -63 -58
-115 -105 -52 -47 -106 -96 -121 -110 -15 -14 -60 -54 -100 -90 -40 -36 -88
-80 -108 -98 -19 -18 -51 -47 -71 -65 -20 -18 -76 -67 -123 -111 -48 -43 -97
-87 -109 -98 -37 -32 -190 -171 -220 -200 -16 -16 -33 -28 -38 -28 -6 0 -10
-7 -10 -15 0 -8 -4 -15 -8 -15 -5 0 -27 -17 -49 -37 -23 -21 -71 -65 -109 -98
-37 -33 -79 -71 -94 -85 -15 -14 -60 -54 -99 -90 -40 -36 -92 -83 -116 -105
-23 -22 -76 -69 -116 -105 -74 -66 -155 -140 -214 -195 -125 -116 -209 -177
-319 -228 -205 -98 -454 -118 -661 -55 -38 12 -72 22 -75 23 -3 0 -31 13 -64
28 -32 15 -62 27 -67 27 -5 0 -9 5 -9 10 0 6 -5 10 -11 10 -23 0 -181 128
-315 255 -6 5 -44 39 -84 75 -40 36 -88 79 -106 95 -18 17 -60 55 -94 85 -34
30 -76 68 -93 83 -17 16 -62 56 -100 90 -38 34 -87 78 -107 97 -21 19 -62 56
-92 82 -29 25 -72 63 -95 85 -22 21 -74 67 -114 103 -41 36 -88 80 -107 98
-18 17 -35 32 -37 32 -2 0 -17 12 -33 28 -38 35 -139 128 -188 171 -22 18 -57
50 -79 70 -22 20 -85 77 -140 126 -55 50 -105 94 -111 100 -6 5 -48 44 -94 85
-46 41 -98 89 -116 105 -18 17 -63 57 -100 90 -37 33 -72 65 -78 70 -6 6 -54
48 -106 95 -52 46 -107 96 -122 110 -14 14 -52 48 -83 75 -32 28 -70 61 -84
75 -15 14 -58 52 -95 85 -38 33 -86 76 -106 95 -36 34 -164 149 -200 180 -59
51 -190 171 -223 203 -21 20 -41 37 -44 37 -3 0 -15 10 -27 23 -20 20 -144
133 -221 202 -57 50 -147 130 -163 146 -9 8 -41 37 -69 64 l-53 48 0 -702z"/>
<path d="M650 4294 c1 -569 4 -641 30 -709 41 -107 104 -204 164 -255 16 -14
48 -43 72 -65 23 -22 65 -60 94 -85 28 -25 64 -56 79 -70 67 -62 281 -255 351
-316 25 -21 52 -46 60 -55 8 -8 65 -60 125 -114 145 -130 275 -246 295 -265 8
-8 49 -44 89 -80 41 -36 86 -76 101 -90 15 -14 64 -59 111 -100 46 -41 99 -90
119 -108 19 -19 56 -52 82 -74 26 -22 66 -58 90 -80 24 -22 72 -65 108 -96 35
-32 78 -70 95 -87 17 -16 59 -55 94 -85 35 -30 75 -66 90 -80 15 -14 64 -59
110 -100 46 -41 96 -86 111 -100 15 -14 59 -53 98 -88 39 -35 82 -73 95 -85
13 -12 59 -53 102 -92 43 -38 90 -81 105 -95 15 -14 60 -54 100 -90 40 -36 85
-76 100 -90 15 -14 59 -53 98 -88 39 -35 81 -73 95 -85 13 -12 63 -58 113
-102 49 -44 108 -98 132 -121 23 -23 42 -39 42 -35 0 3 4 1 8 -4 21 -30 143
-115 232 -162 55 -29 163 -76 180 -78 3 0 11 -4 18 -8 6 -5 12 -6 12 -2 0 3 9
1 19 -5 11 -5 37 -13 58 -16 21 -3 41 -8 44 -9 45 -28 383 -25 502 4 20 5 37
7 37 4 0 -3 6 -1 13 5 7 6 26 13 43 16 123 22 379 172 509 299 12 12 55 52 96
89 41 36 86 77 100 90 49 44 213 193 235 213 61 55 180 163 204 185 15 14 62
57 105 95 43 39 90 81 105 95 49 45 186 169 210 190 49 43 195 176 227 207 18
18 33 31 33 28 0 -2 17 13 38 33 21 20 78 73 127 117 49 44 109 99 134 122 25
23 56 50 67 60 12 10 63 56 114 103 51 47 108 98 127 114 18 16 56 51 84 77
27 27 52 49 55 49 2 0 20 15 38 32 33 33 185 173 228 210 41 35 220 198 318
288 20 19 70 64 111 100 40 36 88 80 106 98 19 17 35 32 38 32 2 0 21 17 42
38 22 20 75 69 118 107 262 234 294 268 347 372 66 130 68 152 68 803 0 491
-2 580 -14 573 -14 -8 -63 -52 -300 -268 -108 -98 -115 -104 -206 -185 -40
-36 -95 -86 -122 -112 -28 -27 -52 -48 -54 -48 -2 0 -19 -15 -37 -32 -19 -18
-66 -62 -106 -98 -40 -36 -93 -84 -118 -107 -24 -24 -47 -43 -49 -43 -3 0 -17
-12 -32 -27 -24 -25 -186 -173 -232 -213 -25 -22 -177 -160 -218 -198 -20 -18
-53 -48 -75 -67 -53 -46 -214 -194 -249 -227 -16 -16 -31 -28 -34 -28 -3 0
-20 -15 -37 -33 -18 -18 -75 -70 -127 -117 -52 -47 -100 -89 -106 -95 -6 -5
-48 -44 -94 -85 -46 -41 -100 -92 -122 -112 -21 -21 -40 -38 -42 -38 -4 0
-120 -106 -167 -152 -16 -16 -30 -28 -33 -28 -2 0 -19 -15 -38 -33 -31 -30
-171 -158 -267 -243 -24 -21 -65 -59 -92 -84 -26 -25 -72 -66 -101 -92 -29
-25 -69 -61 -89 -80 -20 -18 -72 -64 -115 -103 -43 -38 -90 -81 -104 -95 -15
-14 -64 -59 -110 -100 -46 -41 -108 -97 -138 -125 -123 -111 -140 -125 -152
-125 -5 0 -13 -6 -17 -13 -15 -23 -158 -95 -243 -122 -30 -10 -62 -20 -70 -23
-8 -2 -24 -6 -35 -7 -11 -1 -36 -5 -55 -9 -100 -21 -309 -4 -410 32 -8 3 -23
7 -32 8 -73 15 -263 130 -350 212 -26 24 -61 56 -79 71 -18 14 -49 42 -70 62
-21 20 -68 63 -105 95 -38 32 -85 75 -105 94 -20 19 -63 58 -95 86 -33 29 -72
64 -89 79 -16 15 -51 46 -76 69 -25 22 -83 75 -129 116 -45 41 -88 80 -94 85
-6 6 -36 33 -67 60 -30 28 -85 77 -123 110 -37 33 -89 80 -115 105 -27 25 -77
70 -112 100 -35 30 -74 66 -89 79 -14 13 -58 53 -99 90 -41 36 -89 80 -107 96
-18 17 -63 57 -100 90 -60 53 -95 85 -204 185 -15 14 -51 45 -80 70 -28 25
-74 65 -100 90 -42 39 -77 70 -195 175 -54 47 -159 143 -194 175 -20 19 -70
64 -111 100 -40 36 -85 76 -100 90 -15 14 -60 54 -100 90 -41 36 -89 80 -108
98 -18 17 -35 32 -37 32 -2 0 -19 15 -38 33 -34 32 -101 93 -210 190 -32 29
-75 68 -96 87 -21 19 -66 60 -100 90 -35 30 -77 69 -95 85 -18 17 -65 59 -105
95 -41 36 -79 70 -85 75 -6 6 -30 28 -54 49 l-42 39 0 -599z"/>
</g>
</svg>
